# xmcd CD database file
#
# Track frame offsets:
#	150
#	32900
#	66570
#	96475
#	123967
#	168387
#
# Disc length: 2467 seconds
#
# Revision: 0
# Processed by: cddbd v1.5.1PL0 Copyright (c) Steve Scherf et al.
# Submitted via: CDex 1.51
#
DISCID=5409a106
DTITLE=Jim Snidero - On Time
DYEAR=1900
DGENRE=Jazz
TTITLE0=Rhythm a Ning
TTITLE1=Monk´s Mood
TTITLE2=Tyrone
TTITLE3=On Time
TTITLE4=Miles Ago
TTITLE5=Kryptonite
EXTD=
EXTT0=
EXTT1=
EXTT2=
EXTT3=
EXTT4=
EXTT5=
PLAYORDER=
